<?xml version="1.0" encoding="utf-8"?>
<!-- Generator: Adobe Illustrator 24.1.2, SVG Export Plug-In . SVG Version: 6.00 Build 0)  -->
<svg version="1.1" id="Слой_1" xmlns="http://www.w3.org/2000/svg" xmlns:xlink="http://www.w3.org/1999/xlink" x="0px" y="0px"
	 viewBox="0 0 50 50" style="enable-background:new 0 0 50 50;" xml:space="preserve">
<style type="text/css">
	.st0{fill:#73F7DD;}
	.st1{fill:#2E3A87;}
</style>
<g>
	<g>
		<polygon class="st0" points="2.8,29.5 48.8,12.8 23.9,49.8 		"/>
		<polygon class="st0" points="1.3,19.1 23.2,13.9 7.4,0.2 		"/>
	</g>
	<g>
		<g>
			<path class="st1" d="M32,42.4H5.4c-0.3,0-0.6-0.3-0.6-0.6V3.9c0-0.3,0.3-0.6,0.6-0.6H39c0.3,0,0.6,0.3,0.6,0.6v30.9
				c0,0.2-0.1,0.3-0.2,0.4l-7,7C32.3,42.3,32.2,42.4,32,42.4z M6,41.2h25.8l6.7-6.7v-30H6V41.2z"/>
		</g>
		<g>
			<path class="st1" d="M32,42.4c-0.1,0-0.2,0-0.2,0c-0.2-0.1-0.4-0.3-0.4-0.6v-7c0-0.3,0.3-0.6,0.6-0.6h7c0.2,0,0.5,0.1,0.6,0.4
				c0.1,0.2,0,0.5-0.1,0.7l-7,7C32.3,42.3,32.2,42.4,32,42.4z M32.6,35.4v5l5-5H32.6z"/>
		</g>
		<g>
			<g>
				<g>
					<path class="st1" d="M15.2,19.9c-1.9,0-3.4-1.5-3.4-3.4s1.5-3.4,3.4-3.4c1.9,0,3.4,1.5,3.4,3.4S17.1,19.9,15.2,19.9z
						 M15.2,13.7c-1.5,0-2.8,1.3-2.8,2.8s1.3,2.8,2.8,2.8c1.5,0,2.8-1.3,2.8-2.8S16.7,13.7,15.2,13.7z"/>
				</g>
				<g>
					<path class="st1" d="M15.2,22.1c-1,0-1.9-0.2-2.7-0.7c-1.8-1-3-2.9-3-5c0-3.1,2.5-5.7,5.7-5.7s5.7,2.5,5.7,5.7c0,2.1-1.1,4-3,5
						C17.1,21.9,16.2,22.1,15.2,22.1z M15.2,12c-2.5,0-4.5,2-4.5,4.5c0,1.6,0.9,3.1,2.3,3.9c0.7,0.4,1.4,0.5,2.1,0.5
						s1.5-0.2,2.1-0.5c1.4-0.8,2.3-2.3,2.3-3.9C19.7,14,17.7,12,15.2,12z"/>
				</g>
				<g>
					<path class="st1" d="M17.6,30c-0.2,0-0.3-0.1-0.4-0.2l-2-2l-2,2C13,30,12.8,30,12.5,29.9c-0.2-0.1-0.4-0.3-0.4-0.6v-8.4
						c0-0.2,0.1-0.4,0.3-0.5c0.2-0.1,0.4-0.1,0.6,0c0.7,0.4,1.4,0.5,2.1,0.5s1.5-0.2,2.1-0.5c0.2-0.1,0.4-0.1,0.6,0
						c0.2,0.1,0.3,0.3,0.3,0.5v8.4c0,0.2-0.1,0.5-0.4,0.6C17.8,30,17.7,30,17.6,30z M15.2,26.3c0.2,0,0.3,0.1,0.4,0.2l1.4,1.4v-6
						c-1.2,0.4-2.5,0.4-3.6,0v6l1.4-1.4C14.9,26.4,15,26.3,15.2,26.3z"/>
				</g>
			</g>
			<g>
				<path class="st1" d="M32.5,13H22.2c-0.2,0-0.3-0.1-0.3-0.3s0.1-0.3,0.3-0.3h10.3c0.2,0,0.3,0.1,0.3,0.3S32.7,13,32.5,13z"/>
			</g>
			<g>
				<path class="st1" d="M32.5,16.3H22.2c-0.2,0-0.3-0.1-0.3-0.3c0-0.2,0.1-0.3,0.3-0.3h10.3c0.2,0,0.3,0.1,0.3,0.3
					C32.8,16.2,32.7,16.3,32.5,16.3z"/>
			</g>
			<g>
				<path class="st1" d="M32.5,19.7H22.2c-0.2,0-0.3-0.1-0.3-0.3c0-0.2,0.1-0.3,0.3-0.3h10.3c0.2,0,0.3,0.1,0.3,0.3
					C32.8,19.5,32.7,19.7,32.5,19.7z"/>
			</g>
			<g>
				<path class="st1" d="M30.8,26h-8.6c-0.2,0-0.3-0.1-0.3-0.3c0-0.2,0.1-0.3,0.3-0.3h8.6c0.2,0,0.3,0.1,0.3,0.3
					C31.1,25.9,30.9,26,30.8,26z"/>
			</g>
			<g>
				<path class="st1" d="M30.8,29h-8.6c-0.2,0-0.3-0.1-0.3-0.3s0.1-0.3,0.3-0.3h8.6c0.2,0,0.3,0.1,0.3,0.3S30.9,29,30.8,29z"/>
			</g>
			<g>
				<path class="st1" d="M30.8,32h-8.6c-0.2,0-0.3-0.1-0.3-0.3c0-0.2,0.1-0.3,0.3-0.3h8.6c0.2,0,0.3,0.1,0.3,0.3
					C31.1,31.8,30.9,32,30.8,32z"/>
			</g>
		</g>
	</g>
</g>
</svg>
