<?xml version="1.0" encoding="utf-8"?>
<!-- Generator: Adobe Illustrator 24.1.2, SVG Export Plug-In . SVG Version: 6.00 Build 0)  -->
<svg version="1.1" id="Слой_1" xmlns="http://www.w3.org/2000/svg" xmlns:xlink="http://www.w3.org/1999/xlink" x="0px" y="0px"
	 viewBox="0 0 50 50" style="enable-background:new 0 0 50 50;" xml:space="preserve">
<style type="text/css">
	.st0{fill:#73F7DD;}
	.st1{fill:#2E3A87;}
</style>
<g>
	<polygon class="st0" points="4.6,33.3 32.4,9.4 8.7,6.4 	"/>
	<polygon class="st0" points="0.7,43.3 43.8,7.3 49.3,30.8 	"/>
	<path class="st1" d="M19.1,43.6c1.9,1.1,3.5,1.4,4.9,1.3h0c1-0.1,1.9-0.5,2.6-1c0.7-0.5,1.3-1.2,1.7-1.9c0.5-0.8,0.7-1.7,0.7-2.3
		c-0.4-0.8-2.7-4.9-7.2-7.2l0,0c-0.2-0.1-1-0.2-2.8,1.7c-0.2,0.3-0.6,0.3-0.9,0.2c-2.5-0.9-4.8-3.1-6.3-5.8
		c-1.5-2.6-2.3-5.7-1.8-8.4c0.1-0.4,0.4-0.6,0.7-0.7c2.8-0.6,2.8-1.5,2.8-1.5V18c0.2-5.1-2.2-9.1-2.6-9.8c-0.6-0.4-1.4-0.6-2.4-0.6
		C7.7,7.6,6.8,7.8,6,8.2c-0.8,0.4-1.6,1-2.2,1.8c-0.8,1.1-1.4,2.7-1.3,4.9c0.1,5.8,1.7,11.5,4.6,16.5C10,36.3,14.1,40.6,19.1,43.6
		L19.1,43.6z M29,15.6c0.5,0,0.8,0.4,0.8,0.8c0,0.5-0.4,0.8-0.8,0.8h-2c-0.5,0-0.8-0.4-0.8-0.8c0-0.5,0.4-0.8,0.8-0.8H29z
		 M40.3,15.6c0.5,0,0.8,0.4,0.8,0.8c0,0.5-0.4,0.8-0.8,0.8h-7.9c-0.5,0-0.8-0.4-0.8-0.8c0-0.5,0.4-0.8,0.8-0.8H40.3z M38.4,12.2
		c-0.5,0-0.9-0.4-0.9-0.8c0-0.5,0.4-0.8,0.9-0.8h2c0.5,0,0.8,0.4,0.8,0.8c0,0.5-0.4,0.8-0.8,0.8H38.4z M27.1,12.2
		c-0.5,0-0.8-0.4-0.8-0.8c0-0.5,0.4-0.8,0.8-0.8H35c0.5,0,0.8,0.4,0.8,0.8c0,0.5-0.4,0.8-0.8,0.8H27.1z M25.8,5.4h15.8
		c1.3,0,2.5,0.5,3.3,1.4c0.8,0.9,1.4,2,1.4,3.3v7.9c0,1.3-0.5,2.5-1.4,3.3c-0.9,0.8-2,1.4-3.3,1.4h-10l-5.3,4.5
		c-0.4,0.3-0.9,0.3-1.2-0.1C25,27,25,26.8,25,26.6l0-3.9c-0.9-0.2-1.8-0.6-2.5-1.3c-0.9-0.9-1.4-2-1.4-3.3v-7.9
		c0-1.3,0.5-2.5,1.4-3.3C23.3,6,24.5,5.4,25.8,5.4L25.8,5.4z M41.6,7.1H25.8c-0.8,0-1.6,0.3-2.2,0.9c-0.5,0.5-0.9,1.3-0.9,2.1v7.9
		c0,0.8,0.3,1.6,0.9,2.1c0.5,0.6,1.3,0.9,2.1,0.9h0c0.5,0,0.8,0.4,0.8,0.8v2.9l4.1-3.5c0.2-0.1,0.4-0.2,0.6-0.2h10.3
		c0.8,0,1.6-0.3,2.1-0.9c0.6-0.5,0.9-1.3,0.9-2.1v-7.9c0-0.8-0.3-1.6-0.9-2.1C43.2,7.5,42.4,7.1,41.6,7.1L41.6,7.1z M4,14.5
		c0-0.5,0.5-0.8,0.9-0.8c0.5,0,0.8,0.5,0.8,0.9c0,0.3-0.1,0.7-0.1,1.1c0,0.4,0,0.8,0,1.1c0,0.5-0.4,0.8-0.8,0.8
		c-0.5,0-0.8-0.4-0.8-0.8c0-0.4,0-0.8,0-1.2C3.9,15.3,3.9,14.8,4,14.5L4,14.5z M4,19c-0.1-0.5,0.3-0.9,0.7-0.9
		c0.5,0,0.9,0.3,0.9,0.8c0.1,0.9,0.2,1.7,0.4,2.6c0.2,0.8,0.4,1.7,0.7,2.4l0.3,0.8c0.2,0.4,0,0.9-0.5,1.1c-0.4,0.2-0.9,0-1.1-0.5
		c-0.1-0.3-0.3-0.6-0.3-0.9c-0.3-0.8-0.6-1.7-0.8-2.6C4.3,20.8,4.1,19.9,4,19L4,19z M24.2,46.5c-1.7,0.2-3.7-0.2-5.9-1.5
		C13,41.8,8.7,37.4,5.7,32.2C2.7,27,1,21,0.9,14.9c0-2.6,0.6-4.5,1.6-5.9c0.8-1.1,1.8-1.8,2.8-2.3c1-0.5,2.1-0.7,3.2-0.8
		c1.3,0,2.6,0.3,3.5,0.9C12,6.9,12.2,7,12.2,7.1c0,0,3.3,4.8,3,11v0c0,0,0,2-3.6,3c-0.2,2.2,0.5,4.6,1.7,6.7c1.2,2.1,3,3.9,5,4.8
		c2.2-2.2,3.8-1.9,4.3-1.7l0.1,0c5.2,2.7,7.7,7.5,8,8.1c0.1,0.1,0.1,0.2,0.1,0.3c0.1,1.1-0.2,2.3-0.9,3.5c-0.5,0.9-1.3,1.7-2.2,2.4
		C26.6,45.9,25.5,46.4,24.2,46.5L24.2,46.5z"/>
</g>
</svg>
