<?xml version="1.0" encoding="utf-8"?>
<!-- Generator: Adobe Illustrator 24.1.2, SVG Export Plug-In . SVG Version: 6.00 Build 0)  -->
<svg version="1.1" id="Слой_1" xmlns="http://www.w3.org/2000/svg" xmlns:xlink="http://www.w3.org/1999/xlink" x="0px" y="0px"
	 viewBox="0 0 50 50" style="enable-background:new 0 0 50 50;" xml:space="preserve">
<style type="text/css">
	.st0{fill:#73F7DD;}
	.st1{fill:#2E3A87;}
</style>
<g>
	<polygon class="st0" points="2.8,33.7 37.8,18.6 15.2,8.3 	"/>
	<path class="st0" d="M16.4,41.9c1-0.1,32.9-2.3,32.9-2.3l-2.2-16.3L16.4,41.9z"/>
	<g>
		<g>
			<path class="st1" d="M26.1,26.2c-0.8,0.8-1.8,1.6-2.8,2.2C17.4,32,9.9,31.1,5,26.2C-0.8,20.4-0.8,11,5,5.2s15.3-5.8,21.1,0
				c4.8,4.8,5.8,12.3,2.2,18.2C27.7,24.4,26.9,25.4,26.1,26.2z M6.1,6.3c-5.2,5.2-5.2,13.6,0,18.8c4.4,4.4,11.1,5.2,16.4,1.9
				c1.8-1.1,3.4-2.7,4.5-4.5c3.2-5.2,2.3-11.9-2-16.3C19.8,1.1,11.3,1.1,6.1,6.3z"/>
		</g>
		<g>
			<path class="st1" d="M23.1,23.2c-4.1,4.1-10.9,4.1-15,0c-4.1-4.1-4.1-10.9,0-15c4.1-4.1,10.9-4.1,15,0
				C27.2,12.3,27.2,19.1,23.1,23.2z M9.1,9.3c-3.5,3.5-3.5,9.3,0,12.8s9.3,3.5,12.8,0s3.5-9.3,0-12.8S12.7,5.8,9.1,9.3z"/>
		</g>
		<g>
			<path class="st1" d="M21.7,12.5C21.7,12.5,21.7,12.6,21.7,12.5c-0.3,0.2-0.5,0.1-0.6-0.1c-0.3-0.5-0.6-0.9-1-1.3
				c-2.5-2.5-6.6-2.5-9.1,0c-0.2,0.2-0.4,0.2-0.6,0s-0.2-0.4,0-0.6c2.8-2.8,7.4-2.8,10.2,0c0.4,0.4,0.8,0.9,1.1,1.5
				C21.9,12.2,21.8,12.4,21.7,12.5z"/>
		</g>
		<g>
			<path class="st1" d="M34.6,29.9l-4.8,4.8c-0.3,0.3-0.8,0.3-1.1,0l-6.4-6.4c-0.2-0.2-0.3-0.4-0.2-0.6c0-0.2,0.2-0.5,0.4-0.6
				c1.8-1.1,3.4-2.7,4.5-4.5c0.1-0.2,0.3-0.3,0.6-0.4c0.2,0,0.5,0.1,0.7,0.2l6.4,6.4C34.9,29.1,34.9,29.6,34.6,29.9z M29.2,33
				l3.6-3.6l-5.1-5.1c-1,1.4-2.2,2.7-3.6,3.7L29.2,33z"/>
		</g>
		<g>
			<path class="st1" d="M48.9,42.2L42.2,49c-0.3,0.3-0.8,0.3-1.1,0L27.7,35.6c-0.3-0.3-0.3-0.8,0-1.1l6.7-6.7c0.3-0.3,0.8-0.3,1.1,0
				l13.3,13.3C49.2,41.4,49.2,41.9,48.9,42.2z M41.6,47.3l5.6-5.6L35,29.5l-5.6,5.6L41.6,47.3z"/>
		</g>
		<g>
			<path class="st1" d="M44.9,42l-3,3c-0.2,0.2-0.4,0.2-0.6,0l-9.6-9.6c-0.2-0.2-0.2-0.4,0-0.6l3-3c0.2-0.2,0.4-0.2,0.6,0l9.6,9.6
				C45,41.6,45,41.8,44.9,42z M41.6,44.1l2.5-2.5L35,32.6l-2.5,2.5L41.6,44.1z"/>
		</g>
	</g>
</g>
</svg>
