<?xml version="1.0" encoding="utf-8"?>
<!-- Generator: Adobe Illustrator 24.1.2, SVG Export Plug-In . SVG Version: 6.00 Build 0)  -->
<svg version="1.1" id="Слой_1" xmlns="http://www.w3.org/2000/svg" xmlns:xlink="http://www.w3.org/1999/xlink" x="0px" y="0px"
	 viewBox="0 0 50 50" style="enable-background:new 0 0 50 50;" xml:space="preserve">
<style type="text/css">
	.st0{fill:#73F7DD;}
	.st1{fill:#2E3A87;}
</style>
<g>
	<path class="st0" d="M9.3,26.8c0.8,0.4,24.3,13.5,24.3,13.5l7.2-10.7L9.3,26.8z"/>
	<polygon class="st0" points="16.4,25.6 39.4,14.9 18.9,9.7 	"/>
	<path class="st1" d="M49.8,24.9l-5-11.5v-1.1H29.2v-1.7h-0.6v-5h-7.3v5h-0.6v1.7H5.2v1.1l-5,11.5H0v0.6c0,2.9,2.3,5.2,5.2,5.2
		s5.2-2.3,5.2-5.2v-0.6h-0.2L5.2,13.4h15.6v1.7h1.5v19.1h-2.5v4.5H17v5.8H33v-5.8h-2.8v-4.5h-2.5V15.2h1.5v-1.7h15.6l-4.9,11.4h-0.2
		v0.6c0,2.9,2.3,5.2,5.2,5.2s5.2-2.3,5.2-5.2v-0.6H49.8z M5.2,29.4c-2,0-3.6-1.4-3.9-3.3h7.8C8.8,28,7.1,29.4,5.2,29.4z M1.6,24.9
		l3.6-8.4l3.6,8.4H1.6z M31.8,40v3.2H18.2V40h1.5h10.5H31.8z M29,38.7h-8v-3.2h8V38.7z M22.6,6.8h4.8v3.7h-0.5v-3h-3.8v3h-0.5V6.8z
		 M25.6,10.5h-1.3V8.7h1.3V10.5z M26.5,34.3h-2.9V15.2h2.9V34.3z M27.9,13.9h-0.2h-5.5h-0.2v-2.2h2.3h1.3h2.3V13.9z M44.8,16.5
		l3.6,8.4h-7.2L44.8,16.5z M44.8,29.4c-2,0-3.6-1.4-3.9-3.3h7.8C48.4,28,46.8,29.4,44.8,29.4z"/>
</g>
</svg>
