<?xml version="1.0" encoding="utf-8"?>
<!-- Generator: Adobe Illustrator 24.1.2, SVG Export Plug-In . SVG Version: 6.00 Build 0)  -->
<svg version="1.1" id="Слой_1" xmlns="http://www.w3.org/2000/svg" xmlns:xlink="http://www.w3.org/1999/xlink" x="0px" y="0px"
	 viewBox="0 0 50 50" style="enable-background:new 0 0 50 50;" xml:space="preserve">
<style type="text/css">
	.st0{fill:#73F7DD;}
	.st1{fill:#633C23;}
	.st2{fill:#2E3A87;}
</style>
<g>
	<polygon class="st0" points="6.6,6.3 49.4,11.3 22.4,29.3 	"/>
	<path class="st0" d="M11.8,21L28,45.5c0,0-21.8,4.9-21.7,3.6S11.8,21,11.8,21z"/>
</g>
<g>
	<g>
		<path class="st1" d="M1221.4,413.6H991.7c-1.9,0-3.5-1.6-3.5-3.5v-25.8c0-1.9,1.6-3.5,3.5-3.5h229.7c1.9,0,3.5,1.6,3.5,3.5v25.8
			C1224.9,412,1223.3,413.6,1221.4,413.6z M995.2,406.6h222.6v-18.7H995.2V406.6z"/>
	</g>
	<g>
		<path class="st1" d="M1221.4,265.9H991.7c-1.9,0-3.5-1.6-3.5-3.5v-25.8c0-1.9,1.6-3.5,3.5-3.5h229.7c1.9,0,3.5,1.6,3.5,3.5v25.8
			C1224.9,264.4,1223.3,265.9,1221.4,265.9z M995.2,258.9h222.6v-18.7H995.2V258.9z"/>
	</g>
	<g>
		<path class="st1" d="M1193.3,387.8h-173.4c-1.9,0-3.5-1.6-3.5-3.5V262.4c0-1.9,1.6-3.5,3.5-3.5h173.4c1.9,0,3.5,1.6,3.5,3.5v121.9
			C1196.8,386.2,1195.2,387.8,1193.3,387.8z M1023.4,380.8h166.4V265.9h-166.4V380.8z"/>
	</g>
	<g>
		<path class="st1" d="M1181.5,374.3h-150c-1,0-1.8-0.8-1.8-1.8v-98.4c0-1,0.8-1.8,1.8-1.8h150c1,0,1.8,0.8,1.8,1.8v98.4
			C1183.3,373.5,1182.5,374.3,1181.5,374.3z M1033.3,370.8h146.5v-94.9h-146.5V370.8z"/>
	</g>
	<g>
		<path class="st1" d="M1120.6,359h-28.1c-1.9,0-3.5-1.6-3.5-3.5v-64.3c0-1.9,1.6-3.5,3.5-3.5h28.1c1.9,0,3.5,1.6,3.5,3.5v64.3
			C1124.1,357.4,1122.6,359,1120.6,359z M1096,352h21.1v-57.3H1096V352z"/>
	</g>
	<g>
		<path class="st1" d="M1236.6,439.4H976.5c-1.9,0-3.5-1.6-3.5-3.5v-25.8c0-1.9,1.6-3.5,3.5-3.5h260.1c1.9,0,3.5,1.6,3.5,3.5v25.8
			C1240.1,437.8,1238.6,439.4,1236.6,439.4z M980,432.3h253.1v-18.7H980V432.3z"/>
	</g>
	<g>
		<path class="st1" d="M1217.1,240.2H996c-1.6,0-3-1.1-3.4-2.6c-0.4-1.5,0.3-3.2,1.6-4l110.5-64.1c1.1-0.6,2.4-0.6,3.5,0l110.5,64.1
			c1.4,0.8,2,2.4,1.6,4C1220.1,239.1,1218.7,240.2,1217.1,240.2z M1009.1,233.1H1204l-97.5-56.5L1009.1,233.1z"/>
	</g>
</g>
<g>
	<g>
		<path class="st2" d="M44.8,43.3H5.1c-0.3,0-0.6-0.3-0.6-0.6v-4.5c0-0.3,0.3-0.6,0.6-0.6h39.8c0.3,0,0.6,0.3,0.6,0.6v4.5
			C45.4,43.1,45.2,43.3,44.8,43.3z M5.7,42.1h38.5v-3.2H5.7V42.1z"/>
	</g>
	<g>
		<path class="st2" d="M44.8,17.8H5.1c-0.3,0-0.6-0.3-0.6-0.6v-4.5c0-0.3,0.3-0.6,0.6-0.6h39.8c0.3,0,0.6,0.3,0.6,0.6v4.5
			C45.4,17.5,45.2,17.8,44.8,17.8z M5.7,16.6h38.5v-3.2H5.7V16.6z"/>
	</g>
	<g>
		<path class="st2" d="M40,38.9h-30c-0.3,0-0.6-0.3-0.6-0.6V17.2c0-0.3,0.3-0.6,0.6-0.6h30c0.3,0,0.6,0.3,0.6,0.6v21.1
			C40.6,38.6,40.3,38.9,40,38.9z M10.5,37.7h28.8V17.8H10.5V37.7z"/>
	</g>
	<g>
		<path class="st2" d="M37.9,36.6H12c-0.2,0-0.3-0.1-0.3-0.3v-17c0-0.2,0.1-0.3,0.3-0.3h26c0.2,0,0.3,0.1,0.3,0.3v17
			C38.2,36.4,38.1,36.6,37.9,36.6z M12.3,35.9h25.4V19.5H12.3V35.9z"/>
	</g>
	<g>
		<path class="st2" d="M27.4,33.9h-4.9c-0.3,0-0.6-0.3-0.6-0.6V22.2c0-0.3,0.3-0.6,0.6-0.6h4.9c0.3,0,0.6,0.3,0.6,0.6v11.1
			C28,33.6,27.7,33.9,27.4,33.9z M23.1,32.7h3.7v-9.9h-3.7V32.7z"/>
	</g>
	<g>
		<path class="st2" d="M47.5,47.8h-45c-0.3,0-0.6-0.3-0.6-0.6v-4.5c0-0.3,0.3-0.6,0.6-0.6h45c0.3,0,0.6,0.3,0.6,0.6v4.5
			C48.1,47.5,47.8,47.8,47.5,47.8z M3,46.6h43.8v-3.2H3V46.6z"/>
	</g>
	<g>
		<path class="st2" d="M44.1,13.3H5.8c-0.3,0-0.5-0.2-0.6-0.5c-0.1-0.3,0-0.5,0.3-0.7L24.6,1.1c0.2-0.1,0.4-0.1,0.6,0l19.1,11.1
			c0.2,0.1,0.4,0.4,0.3,0.7C44.6,13.1,44.4,13.3,44.1,13.3z M8.1,12.1h33.7L24.9,2.3L8.1,12.1z"/>
	</g>
</g>
</svg>
