<?xml version="1.0" encoding="utf-8"?>
<!-- Generator: Adobe Illustrator 24.1.2, SVG Export Plug-In . SVG Version: 6.00 Build 0)  -->
<svg version="1.1" id="Слой_1" xmlns="http://www.w3.org/2000/svg" xmlns:xlink="http://www.w3.org/1999/xlink" x="0px" y="0px"
	 viewBox="0 0 50 50" style="enable-background:new 0 0 50 50;" xml:space="preserve">
<style type="text/css">
	.st0{fill:#73F7DD;}
	.st1{fill:#2E3A87;}
</style>
<g>
	<polygon class="st0" points="6.1,29.5 36.2,16.4 16.7,7.6 	"/>
	<polygon class="st0" points="0,37.1 46.6,17.7 45,39.2 	"/>
	<g>
		<g>
			<g>
				<g>
					<path class="st1" d="M14.3,45L14,44.9c-0.2-0.1-4.2-2-7.9-7.1C2.7,33-1,24.5,0.3,10.8l0.1-1.4l1.1,0.8c2.4,1.7,4.4,2.3,6.2,1.9
						c2-0.4,4-2.1,5.9-5L14.3,6L15,7.1c1.9,2.9,3.8,4.6,5.9,5c1.9,0.4,3.8-0.2,6.2-1.9l1.1-0.8l0.1,1.4c1.3,13.7-2.5,22.3-5.8,27
						c-3.7,5.2-7.7,7.1-7.9,7.1L14.3,45z M1.8,12.2C0.9,24.7,4.3,32.5,7.4,36.8c2.9,4,5.9,5.9,6.9,6.4c1-0.6,4.1-2.5,7-6.5
						c3.1-4.4,6.5-12.1,5.6-24.5c-2.3,1.3-4.4,1.8-6.3,1.4c-2.3-0.5-4.3-2-6.2-4.7c-1.9,2.7-4,4.3-6.2,4.7C6.1,14,4.1,13.6,1.8,12.2
						z"/>
				</g>
			</g>
			<g>
				<g>
					<path class="st1" d="M14.3,40.8l-0.5-0.3c-3-2.2-10.1-8.9-10.1-24l0-1l1,0.2c0.7,0.1,1.4,0.2,2,0.2c2.5,0,4.9-1,7.1-3.1
						l0.5-0.5l0.5,0.5c2.1,2,4.5,3.1,7.1,3.1c0,0,0,0,0,0c0.7,0,1.3-0.1,2-0.2l1-0.2l0,1c-0.1,15.1-7.1,21.8-10.1,24L14.3,40.8z
						 M5.3,17.4c0.3,13,6,19.1,9,21.4c2.9-2.3,8.7-8.5,9-21.4c-0.5,0.1-0.9,0.1-1.4,0.1c0,0,0,0,0,0c-2.7,0-5.3-1-7.6-3
						c-2.3,2-4.9,3-7.6,3C6.3,17.5,5.8,17.5,5.3,17.4z"/>
				</g>
			</g>
			<g>
				<g>
					<path class="st1" d="M14.3,29.9l-4.1-4.1l4.1-4.1l4.1,4.1L14.3,29.9z M12.4,25.8l1.9,1.9l1.9-1.9L14.3,24L12.4,25.8z"/>
				</g>
			</g>
		</g>
		<path class="st1" d="M50,32.4h-0.9V13.1L43.8,5l-5.2,8.2v19.3h-0.9v4.2h2.6v7.1h7v-7.1H50V32.4z M47.5,32.4h-2.8V9.2l2.8,4.5V32.4
			z M40.2,13.6l2.8-4.5v23.3h-2.8V13.6z M41.9,38.6l1.2,0.5l-1.2,1.5V38.6z M42.7,42.2l1.8-2.4l1.2,0.6v1.9H42.7z M45.8,38.6
			l-3.8-1.8v-0.2h3.8V38.6z M48.4,35.1h-1.1h-7h-1.1V34h9.1V35.1z"/>
	</g>
</g>
</svg>
